# xmcd
#
# Track frame offsets: 
#        150
#        14987
#        27746
#        40362
#        53962
#        67472
#        81622
#        95081
#        108872
#        120653
#        132546
#        146437
#        160321
#        173679
#        187719
#        199975
#        212904
#        226516
#        239446
#        251673
#
# Disc length: 3526 seconds
#
# Revision: 0
# Processed by: cddbd v1.5.2PL0 Copyright (c) Steve Scherf et al.
# Submitted via: ExactAudioCopy v0.99pb5
#
DISCID=320dc414
DTITLE=Various Artist - The Essential Charlie Poole CD 03- A Trip To New York
DYEAR=2009
DGENRE=Country
TTITLE0=Roy Harvey - The Brave Engineer
TTITLE1=Roy Harvey - Dark Eyes
TTITLE2=Roy Harvey - Willie, Poor Boy
TTITLE3=Roy Harvey - When The Bees Are In The Hive
TTITLE4=Roy Harvey - Daisies Won't Tell
TTITLE5=Roy Harvey - The Wreck Of The Virginian
TTITLE6=The North Carolina Ramblers - I Cannot Call Her Mother
TTITLE7=The North Carolina Ramblers - Pearl Bryant
TTITLE8=The North Carolina Ramblers - Bill Mason
TTITLE9=The North Carolina Ramblers - Kitty Blye
TTITLE10=The North Carolina Ramblers - The Bluefield Murder
TTITLE11=The North Carolina Ramblers - I'll Be There, Mary Dear
TTITLE12=The North Carolina Ramblers - What Is Home Without Love
TTITLE13=Posey Rorer - As We Sat Beneath The Maple On The Hill
TTITLE14=Fred Newman (Roy Harvey) - San Antonio
TTITLE15=Fred Newman (Roy Harvey) - What Is A Home Without Babies
TTITLE16=Allegheny Highlanders - A Trip To New York (Part 1)
TTITLE17=Allegheny Highlanders - A Trip To New York (Part 2)
TTITLE18=Allegheny Highlanders - A Trip To New York (Part 3)
TTITLE19=Allegheny Highlanders - A Trip To New York (Part 4)
EXTD=
EXTT0=
EXTT1=
EXTT2=
EXTT3=
EXTT4=
EXTT5=
EXTT6=
EXTT7=
EXTT8=
EXTT9=
EXTT10=
EXTT11=
EXTT12=
EXTT13=
EXTT14=
EXTT15=
EXTT16=
EXTT17=
EXTT18=
EXTT19=
PLAYORDER=
